Coordinates
version=1
nRows=9
nColumns=36
inDegrees=yes

Units are S.I. units (second, meters, Newtons, ...)
If the header above contains a line with 'inDegrees', this indicates whether rotational values are in degrees (yes) or radians (no).

endheader
time	pelvis_tilt	pelvis_list	pelvis_rotation	pelvis_tx	pelvis_ty	pelvis_tz	hip_flexion_r	hip_adduction_r	hip_rotation_r	knee_angle_r	knee_angle_r_beta	ankle_angle_r	subtalar_angle_r	mtp_angle_r	hip_flexion_l	hip_adduction_l	hip_rotation_l	knee_angle_l	knee_angle_l_beta	ankle_angle_l	subtalar_angle_l	mtp_angle_l	lumbar_extension	lumbar_bending	lumbar_rotation	arm_flex_r	arm_add_r	arm_rot_r	elbow_flex_r	pro_sup_r	arm_flex_l	arm_add_l	arm_rot_l	elbow_flex_l	pro_sup_l
      1.66666670	     -1.94171751	      2.67962380	      0.37141185	     -0.21143433	      1.24084004	      0.03289726	      7.31710591	     -1.84577589	     -1.99149239	      6.77496518	      0.11824545	     13.71852801	     10.92748809	     -7.49999981	      9.10382024	      2.08358957	    -16.38410231	      9.92101319	      0.17315435	     -0.53083936	      4.95018410	     -7.49999981	     -3.87320892	     -4.36995426	     -3.05319393	      3.37047276	     -5.94025709	     11.73596732	     28.55235376	     88.03951033	      3.63091886	     -8.33085701	     17.24002665	     23.69163428	     82.99373434
      1.68333330	     -1.86935716	      2.71403895	      0.31255833	     -0.21237359	      1.23853445	      0.03522669	      7.42669415	     -1.72745561	     -1.79263494	      7.02730693	      0.12264964	     13.70066889	     10.84849773	     -7.49999981	      9.19589604	      1.92582401	    -16.31645138	     10.24206835	      0.17875781	     -0.51811087	      4.64412745	     -7.49999981	     -4.03247859	     -4.42574501	     -3.00791493	      3.21196412	     -5.94297497	     11.81046843	     28.65575513	     87.49534446	      3.41337761	     -8.35257456	     17.23421855	     23.83492686	     82.54518201
      1.70000000	     -1.91636108	      2.78675444	      0.38737584	     -0.21053081	      1.24045543	      0.03668280	      7.60974233	     -1.73689078	     -1.88042243	      7.19025409	      0.12549361	     13.65724318	     10.76814703	     -7.49999983	      9.37726098	      1.83810070	    -16.18387316	     10.55510852	      0.18422140	     -0.43805994	      4.30896217	     -7.49999983	     -3.86332446	     -4.49046155	     -3.06555081	      3.12995897	     -6.02716614	     12.31713171	     28.32633373	     88.66944935	      3.19770103	     -8.40713959	     17.81957866	     23.40087933	     83.58534683
      1.71666670	     -1.85015265	      2.87832129	      0.37883631	     -0.20955088	      1.24611839	      0.03809442	      7.54389012	     -1.74801862	     -1.95823616	      7.32563300	      0.12785642	     13.31709697	     10.79731088	     -7.49999983	      9.38094556	      1.79247752	    -16.16818043	     10.66105219	      0.18607046	     -0.59752619	      4.35242205	     -7.49999983	     -3.85448045	     -4.57631849	     -3.03663814	      2.92363228	     -6.03720958	     12.28941550	     28.26961229	     88.65483064	      2.92657633	     -8.39740273	     17.79556522	     23.32347545	     83.57764942
      1.73333330	     -1.73698833	      3.01907554	      0.33480468	     -0.21201752	      1.24350302	      0.03930200	      7.48964304	     -1.83959449	     -2.02955805	      7.39346329	      0.12904028	     13.10991706	     10.78117151	     -7.49999983	      9.39455626	      1.85277228	    -16.20027428	     10.80465692	      0.18857684	     -0.98895299	      4.21863870	     -7.49999983	     -4.00178636	     -4.69353291	     -2.93429199	      2.82466373	     -6.04235341	     12.06924752	     28.29857760	     87.36025112	      2.66688072	     -8.34827904	     17.51235159	     23.31104921	     82.37172119
      1.75000000	     -1.85188629	      3.15839162	      0.39456393	     -0.21131059	      1.24625465	      0.04205556	      7.68179468	     -1.86339616	     -2.09834032	      7.33599494	      0.12803727	     12.99883234	     11.00512124	     -7.49999984	      9.67927368	      1.82696157	    -16.11676988	     10.98821654	      0.19178056	     -1.21631619	      4.34737286	     -7.49999984	     -3.66934560	     -4.81508531	     -3.05140254	      2.86053420	     -6.02191946	     12.60933486	     27.58205801	     86.38080162	      2.48519363	     -8.27879750	     17.72851209	     22.52896945	     81.26423675
      1.76666670	     -1.56864924	      3.28484074	      0.35317004	     -0.21040812	      1.24602524	      0.04381503	      7.33276100	     -1.91001647	     -2.19036695	      7.19053210	      0.12549846	     12.81770966	     10.99424857	     -7.49999985	      9.47202076	      1.84534464	    -15.99117727	     11.06171036	      0.19306327	     -1.49146024	      4.54938728	     -7.49999985	     -4.01191115	     -4.89007469	     -3.01485551	      2.81215244	     -6.05109799	     12.71082910	     27.68192007	     83.41491559	      2.18826623	     -8.30942377	     17.62518950	     22.75073766	     78.53431137
      1.78333330	     -1.68566458	      3.38346239	      0.34679491	     -0.21109373	      1.24292237	      0.04467018	      7.58394555	     -1.90905849	     -2.05403516	      7.27309285	      0.12693942	     12.87750901	     11.05958398	     -7.49999985	      9.87409658	      1.78532798	    -15.87546490	     11.49193101	      0.20057203	     -1.49799206	      4.53386073	     -7.49999985	     -3.78990116	     -4.93906565	     -3.09655328	      3.02426611	     -6.22259909	     13.64905057	     27.05307642	     84.40748264	      2.07872791	     -8.32892814	     18.24026116	     22.04242375	     79.13433743
      1.80000000	     -1.52810844	      3.42792506	      0.22757972	     -0.21094047	      1.23776740	      0.04581979	      7.53194617	     -1.93337214	     -1.96349603	      7.48882295	      0.13070462	     13.08970301	     10.51072149	     -7.49999986	      9.94655458	      1.72159869	    -15.41235017	     11.90239035	      0.20773590	     -1.42773649	      4.17637635	     -7.49999986	     -4.05436704	     -4.91026835	     -3.10508918	      2.97719070	     -6.29682051	     12.22601999	     27.37184080	     90.20854859	      1.77153880	     -8.35780825	     16.86156748	     22.34716331	     83.70131957
